<?xml version="1.0" standalone="no"?>
<!DOCTYPE svg PUBLIC "-//W3C//DTD SVG 20010904//EN"
 "http://www.w3.org/TR/2001/REC-SVG-20010904/DTD/svg10.dtd">
<svg version="1.0" xmlns="http://www.w3.org/2000/svg"
 width="500.000000pt" height="500.000000pt" viewBox="0 0 500.000000 500.000000"
 preserveAspectRatio="xMidYMid meet">
<metadata>
Created by potrace 1.11, written by Peter Selinger 2001-2013
</metadata>
<g transform="translate(0.000000,500.000000) scale(0.100000,-0.100000)"
fill="#000000" stroke="none">
<path d="M2523 4473 c26 -2 68 -2 95 0 26 2 4 3 -48 3 -52 0 -74 -1 -47 -3z"/>
<path d="M2428 4463 c6 -2 18 -2 25 0 6 3 1 5 -13 5 -14 0 -19 -2 -12 -5z"/>
<path d="M2703 4463 c9 -2 25 -2 35 0 9 3 1 5 -18 5 -19 0 -27 -2 -17 -5z"/>
<path d="M2358 4453 c7 -3 16 -2 19 1 4 3 -2 6 -13 5 -11 0 -14 -3 -6 -6z"/>
<path d="M2778 4453 c7 -3 16 -2 19 1 4 3 -2 6 -13 5 -11 0 -14 -3 -6 -6z"/>
<path d="M2828 4443 c7 -3 16 -2 19 1 4 3 -2 6 -13 5 -11 0 -14 -3 -6 -6z"/>
<path d="M1734 4158 l-19 -23 23 19 c21 18 27 26 19 26 -2 0 -12 -10 -23 -22z"/>
<path d="M3450 4138 c3 -2 39 -35 80 -73 l75 -69 -60 62 c-33 35 -69 68 -80
74 -11 6 -18 9 -15 6z"/>
<path d="M1639 4073 l-24 -28 28 24 c25 23 32 31 24 31 -2 0 -14 -12 -28 -27z"/>
<path d="M1549 3973 l-24 -28 28 24 c25 23 32 31 24 31 -2 0 -14 -12 -28 -27z"/>
<path d="M3618 3965 c12 -16 30 -41 41 -55 11 -13 17 -29 14 -34 -3 -5 -1 -6
6 -2 11 7 -36 83 -68 109 -8 7 -5 -1 7 -18z"/>
<path d="M1452 3828 c-11 -18 -18 -37 -14 -42 3 -6 8 -4 10 4 3 8 11 27 19 43
19 37 10 34 -15 -5z"/>
<path d="M3707 3842 c0 -2 -2 -16 -7 -31 -5 -20 -2 -46 12 -86 12 -35 17 -68
13 -86 -4 -17 -2 -29 4 -29 11 0 8 -291 -3 -309 -4 -5 -8 -34 -11 -64 -2 -30
-12 -76 -21 -102 -8 -26 -13 -53 -10 -60 2 -7 0 -17 -6 -23 -19 -19 -18 -60 0
-65 9 -3 -3 -3 -28 0 -65 7 -104 20 -205 69 -49 24 -126 53 -170 65 -188 50
-524 27 -533 -37 -2 -11 4 -27 13 -34 22 -18 19 -27 -12 -44 -16 -8 -49 -33
-76 -56 l-47 -42 -68 28 c-59 25 -80 28 -177 29 -95 0 -117 -3 -162 -24 l-52
-23 -58 51 c-31 28 -61 51 -65 51 -4 0 -8 5 -8 10 0 6 6 10 14 10 24 0 47 40
35 62 -12 23 -39 34 -133 53 -140 29 -281 20 -403 -25 -29 -11 -63 -22 -75
-24 -13 -3 -36 -8 -53 -11 l-30 -6 -1 123 c0 68 -1 177 -2 244 -2 112 0 127
28 205 16 46 30 85 30 87 0 1 -7 2 -16 2 -8 0 -12 -4 -9 -10 3 -5 2 -10 -4
-10 -6 0 -7 -7 -4 -17 5 -11 3 -14 -6 -8 -10 6 -11 2 -6 -15 5 -17 4 -21 -6
-15 -9 6 -11 3 -6 -8 3 -10 2 -17 -3 -17 -28 0 -77 -239 -92 -445 -6 -93 -16
-173 -22 -177 -5 -4 -32 -10 -59 -13 -50 -7 -87 -33 -87 -60 0 -8 12 -31 26
-52 23 -35 25 -44 19 -101 -4 -35 -13 -79 -21 -98 -15 -36 -17 -113 -5 -184 7
-38 9 -40 11 -15 2 29 2 28 11 -9 5 -22 22 -67 38 -100 17 -37 27 -75 26 -96
-1 -19 -3 -75 -4 -125 -2 -61 -5 -83 -11 -70 -6 14 -9 16 -9 4 -1 -8 9 -26 21
-38 11 -13 25 -44 29 -70 53 -291 190 -525 456 -780 62 -59 129 -116 150 -127
21 -10 45 -24 54 -31 37 -30 170 -87 244 -105 262 -63 567 -32 797 82 54 27
113 60 131 74 19 14 36 26 40 26 14 0 118 76 186 137 150 132 259 253 341 376
45 67 84 134 87 149 3 16 8 28 12 28 4 0 15 22 26 49 29 77 36 82 79 70 45
-12 89 9 123 61 28 41 30 61 3 30 -11 -13 -20 -27 -20 -31 0 -17 -84 -48 -102
-38 -10 5 -18 13 -18 17 0 31 34 164 49 192 11 19 25 64 31 100 32 168 68 234
143 257 l36 11 4 -37 c3 -26 4 -22 5 19 2 72 -7 128 -22 126 -56 -10 -176
-133 -176 -180 0 -9 -4 -16 -10 -16 -6 0 -10 40 -10 101 0 84 2 100 14 96 9
-4 22 7 35 28 18 32 19 34 2 23 -10 -6 -26 -8 -35 -5 -29 11 -36 50 -25 144
18 171 7 472 -22 608 -25 115 -106 334 -137 370 -9 11 -16 19 -15 17z m-2337
-249 c-11 -17 -11 -17 -6 0 3 10 6 24 7 30 0 9 2 9 5 0 3 -7 0 -20 -6 -30z
m461 -568 c31 -8 74 -22 95 -31 l39 -17 -35 -15 c-19 -8 -73 -16 -120 -18
-118 -5 -195 -21 -265 -58 -74 -37 -149 -99 -176 -143 -27 -43 -43 -43 -34 0
14 67 17 120 10 165 -4 26 -10 41 -12 34 -3 -6 -9 -10 -14 -6 -35 21 48 72
158 95 103 21 264 19 354 -6z m1533 -30 c131 -34 198 -107 226 -247 14 -71 6
-88 -23 -51 -12 15 -25 30 -30 31 -4 2 -33 26 -65 53 -78 67 -254 136 -333
130 -20 -1 -39 2 -43 7 -3 5 -64 8 -138 6 -73 -1 -148 -3 -167 -3 -24 -1 -32
-5 -28 -15 4 -9 -3 -16 -18 -20 -14 -4 -31 -20 -41 -41 -17 -37 -34 -54 -34
-35 0 48 114 149 193 171 151 43 364 49 501 14z m-1348 -56 c3 -6 -5 -3 -20 6
-14 10 -26 19 -26 22 0 7 39 -17 46 -28z m504 -62 c44 -15 66 -28 68 -40 5
-24 -7 -54 -16 -42 -4 6 -27 21 -51 34 -59 32 -174 41 -222 17 -17 -9 -40 -16
-49 -16 -9 0 -25 -9 -36 -21 l-18 -21 -8 28 c-9 35 -5 39 58 64 70 27 189 26
274 -3z m-660 -38 c12 -9 11 -10 -7 -6 -70 15 -170 -41 -208 -116 -62 -126 5
-287 131 -315 106 -24 214 21 255 106 43 88 25 191 -44 262 l-32 33 30 -16
c32 -16 69 -53 104 -104 21 -31 21 -34 6 -91 -43 -167 -131 -284 -260 -348
-58 -28 -65 -29 -200 -29 -123 0 -146 3 -188 22 -104 49 -199 173 -222 291 -4
17 -4 32 -1 32 3 0 12 -15 20 -32 l14 -33 1 31 c1 17 4 34 8 37 7 8 53 -39 53
-54 0 -29 22 11 46 84 29 86 57 139 93 171 26 24 27 14 0 -40 -22 -46 -23
-105 -1 -112 6 -2 12 4 12 12 0 18 41 101 62 126 24 29 84 70 124 84 46 17
183 20 204 5z m1334 -24 c107 -28 193 -101 237 -200 21 -47 39 -52 39 -10 0
19 -14 57 -48 129 -3 5 0 6 6 2 20 -12 68 -91 102 -168 18 -43 37 -78 42 -78
30 0 -28 -126 -87 -189 -90 -96 -177 -131 -331 -131 -145 0 -242 32 -326 108
-88 80 -153 218 -162 349 -2 26 1 29 23 25 21 -4 22 -6 8 -17 -18 -13 -14 -43
15 -90 16 -27 18 -28 18 -8 0 38 49 136 88 176 97 101 236 138 376 102z m-705
-24 c64 -13 81 -35 92 -122 39 -316 94 -437 259 -564 25 -19 48 -35 53 -35 4
0 26 -9 50 -19 65 -30 143 -50 245 -61 148 -16 272 20 348 102 35 38 73 143
79 218 3 47 23 110 35 110 3 0 5 -48 6 -106 0 -74 4 -108 13 -113 10 -6 10
-11 -2 -22 -8 -8 -17 -44 -21 -79 -13 -117 -16 -134 -24 -140 -4 -3 -20 -24
-36 -48 -43 -63 -163 -172 -242 -218 -75 -44 -171 -80 -304 -114 -46 -12 -93
-26 -103 -32 -10 -5 -20 -8 -22 -6 -2 2 -12 47 -23 100 -12 56 -31 115 -47
141 -51 88 -158 162 -221 155 -37 -4 -42 6 -19 36 21 27 18 103 -4 152 -27 59
-36 59 -33 1 6 -110 -75 -182 -203 -181 -157 1 -228 90 -171 217 23 52 3 46
-28 -9 -34 -60 -43 -132 -23 -173 l15 -30 -28 5 c-35 7 -97 -24 -156 -78 -50
-46 -96 -134 -115 -221 -7 -32 -15 -60 -19 -62 -11 -7 -230 73 -274 100 -52
30 -156 126 -156 143 0 6 -4 12 -9 12 -12 0 -52 126 -53 165 0 2 -6 28 -13 57
-8 29 -12 55 -9 58 3 3 18 -9 34 -27 54 -61 80 -68 235 -68 145 0 180 7 288
54 27 12 57 21 68 21 10 0 19 4 19 8 0 5 33 43 73 85 97 101 151 202 167 314
7 46 10 100 8 120 -8 60 17 109 65 132 23 10 49 21 57 24 23 8 100 7 149 -2z
m-1234 -126 c-4 -44 -9 -82 -11 -84 -2 -3 -10 1 -17 8 -14 14 -17 144 -4 176
l8 20 16 -20 c12 -16 13 -36 8 -100z m533 73 c7 -7 12 -24 12 -40 0 -50 -66
-62 -91 -17 -23 43 44 92 79 57z m929 -160 c-3 -7 -5 -2 -5 12 0 14 2 19 5 13
2 -7 2 -19 0 -25z m-572 -110 c-32 -88 -65 -158 -75 -158 -5 0 -11 -9 -15 -19
-15 -49 -154 -154 -238 -181 -60 -19 -215 -27 -272 -14 -84 19 -135 47 -173
96 -10 12 7 8 60 -15 65 -27 86 -31 184 -34 96 -2 122 1 191 22 98 31 172 81
236 160 42 52 89 137 111 199 3 10 8 17 11 15 2 -3 -7 -34 -20 -71z m-155 23
c0 -22 -35 -54 -77 -71 -69 -27 -88 20 -20 49 23 11 51 26 62 34 23 18 35 13
35 -12z m1544 -258 c-7 -16 -14 -32 -14 -38 -1 -22 -66 -79 -125 -110 -75 -39
-143 -50 -260 -40 -71 6 -85 10 -90 26 -5 16 -12 19 -40 13 -34 -6 -94 16
-125 46 -8 8 -27 22 -40 31 -45 30 -15 30 41 0 104 -56 293 -77 414 -46 71 19
162 66 212 111 21 18 39 33 40 34 1 0 -5 -12 -13 -27z m-734 -29 c0 -2 -9 0
-20 6 -11 6 -20 13 -20 16 0 2 9 0 20 -6 11 -6 20 -13 20 -16z m-320 -654
c170 -24 174 -25 262 -86 26 -18 53 -34 60 -36 22 -8 -12 -68 -54 -96 -88 -58
-169 -44 -248 42 -43 47 -93 66 -169 66 -58 0 -86 -14 -134 -66 -37 -39 -51
-47 -90 -51 -37 -5 -54 -1 -90 20 -45 27 -82 83 -72 109 9 23 135 88 174 89
20 1 47 5 61 9 34 11 221 11 300 0z"/>
<path d="M2980 2783 c-96 -49 -146 -156 -120 -254 33 -123 130 -181 266 -159
172 28 235 246 108 374 -41 40 -80 58 -143 63 -47 4 -64 0 -111 -24z m54 -95
c8 -22 6 -32 -9 -48 -22 -24 -42 -25 -67 -3 -22 20 -23 46 -2 68 25 24 67 15
78 -17z m190 -204 c22 -9 19 -24 -10 -58 -16 -18 -40 -31 -62 -35 -80 -14 -99
16 -29 47 23 11 51 27 62 36 24 18 20 17 39 10z"/>
<path d="M2210 2370 c0 -5 5 -10 10 -10 6 0 10 5 10 10 0 6 -4 10 -10 10 -5 0
-10 -4 -10 -10z"/>
<path d="M2217 2233 c-4 -3 -7 -11 -7 -17 0 -6 5 -5 12 2 6 6 9 14 7 17 -3 3
-9 2 -12 -2z"/>
<path d="M4092 2420 c0 -14 2 -19 5 -12 2 6 2 18 0 25 -3 6 -5 1 -5 -13z"/>
<path d="M1151 2404 c0 -11 3 -14 6 -6 3 7 2 16 -1 19 -3 4 -6 -2 -5 -13z"/>
<path d="M1162 2330 c0 -14 2 -19 5 -12 2 6 2 18 0 25 -3 6 -5 1 -5 -13z"/>
<path d="M4071 2314 c0 -11 3 -14 6 -6 3 7 2 16 -1 19 -3 4 -6 -2 -5 -13z"/>
<path d="M4051 2234 c0 -11 3 -14 6 -6 3 7 2 16 -1 19 -3 4 -6 -2 -5 -13z"/>
<path d="M4028 2153 c-9 -32 -15 -59 -13 -61 5 -5 37 97 33 108 -2 5 -11 -16
-20 -47z"/>
</g>
</svg>
